# xmcd CD database file
#
# Track frame offsets:
#	150
#	20887
#	48420
#	74117
#	100446
#	120894
#	144606
#	163377
#	187942
#	216651
#
# Disc length: 3254 seconds
#
# Revision: 0
# Processed by: cddbd v1.5.2PL0 Copyright (c) Steve Scherf et al.
# Submitted via: CDex 1.51
#
DISCID=a00cb40a
DTITLE=Margareta Bengtson - I'm old-fashioned
DYEAR=2008
DGENRE=Jazz
TTITLE0=I'm old-fashioned
TTITLE1=This is new
TTITLE2=Corcovado
TTITLE3=Once upon a summertime
TTITLE4=Twisted
TTITLE5=It never entered my mind
TTITLE6=Like someone in love
TTITLE7=Dindi
TTITLE8=Someone to watch over me
TTITLE9=Some other time
EXTD=YEAR: 2008
EXTT0=
EXTT1=
EXTT2=
EXTT3=
EXTT4=
EXTT5=
EXTT6=
EXTT7=
EXTT8=
EXTT9=
PLAYORDER=
